# xmcd
#
# Track frame offsets:
#	150
#	15489
#	30750
#	46385
#	62774
#	78525
#	95315
#	110463
#	127131
#	139243
#	154366
#	167091
#	186173
#	204848
#	219539
#	234727
#
# Disc length: 3357 seconds
#
# Revision: 0
# Processed by: cddbd v1.5.2PL0 Copyright (c) Steve Scherf et al.
# Submitted via: audiograbber 1.83.01
#
DISCID=d80d1b10
DTITLE=Chris Anderson - The Songs Af Glenn Erickson
DYEAR=2007
DGENRE=Country
TTITLE0=Taking The Fifth
TTITLE1=Freedom Of The Road
TTITLE2=Second Fiddle
TTITLE3=If I Make It Til Dawn
TTITLE4=It Ain´t Over
TTITLE5=The Bible and The Bottle
TTITLE6=My Aim Is Getting Better
TTITLE7=The Long Hard Road
TTITLE8=Deal The Cards
TTITLE9=Worship The Ground
TTITLE10=Do´ Wanna Sleep Alone
TTITLE11=The Wind Of Freedom
TTITLE12=Gold In California
TTITLE13=My Kinda Woman
TTITLE14=Don´t Look Back
TTITLE15=Island Paradise
EXTD=
EXTT0=
EXTT1=
EXTT2=
EXTT3=
EXTT4=
EXTT5=
EXTT6=
EXTT7=
EXTT8=
EXTT9=
EXTT10=
EXTT11=
EXTT12=
EXTT13=
EXTT14=
EXTT15=
PLAYORDER=
